<?xml version="1.0" encoding="UTF-8" standalone="no"?><!DOCTYPE svg PUBLIC "-//W3C//DTD SVG 1.1//EN" "http://www.w3.org/Graphics/SVG/1.1/DTD/svg11.dtd"><svg width="100%" height="100%" viewBox="0 0 810 810" version="1.1" xmlns="http://www.w3.org/2000/svg" xmlns:xlink="http://www.w3.org/1999/xlink" xml:space="preserve" xmlns:serif="http://www.serif.com/" style="fill-rule:evenodd;clip-rule:evenodd;stroke-linejoin:round;stroke-miterlimit:2;"><path d="M119.095,47.76l456.258,0l-0,143.262l-41.325,0c-6.185,-23.602 -12.299,-42.265 -18.343,-55.987c-6.044,-13.723 -12.44,-24.152 -19.187,-31.287c-6.747,-7.136 -13.985,-12.213 -21.716,-15.232c-7.731,-3.019 -19.327,-4.528 -34.789,-4.528l-53.553,-0l-0,442.973c-0,16.192 0.913,29.091 2.741,38.697c1.827,9.605 4.638,17.221 8.433,22.847c3.795,5.627 8.926,10.018 15.392,13.174c6.465,3.156 16.586,6.244 30.361,9.262l-0,20.172l-192.708,0l-0,-20.172c8.433,-1.921 15.883,-3.979 22.349,-6.175c6.466,-2.195 11.737,-4.871 15.813,-8.027c4.076,-3.156 7.45,-7.204 10.12,-12.144c2.671,-4.941 4.779,-11.665 6.325,-20.172c1.547,-8.508 2.32,-20.996 2.32,-37.462l-0,-442.973l-53.132,-0c-13.213,-0 -24.106,1.235 -32.68,3.705c-8.574,2.47 -16.516,7.616 -23.825,15.437c-7.309,7.822 -13.986,18.937 -20.03,33.346c-6.044,14.408 -11.737,32.59 -17.078,54.546l-41.746,0l-0,-143.262Z" style="fill-rule:nonzero;"/><g transform="matrix(1,0,0,0.976264,0,-34.1169)"><g transform="matrix(863.601,0,0,863.601,746.746,811.799)"></g><text x="318.319px" y="811.799px" style="font-family:'Cambria', serif;font-size:863.601px;">S</text></g></svg>